HIERARCHY
ROOT Hips
{
	OFFSET	0.00	0.00	0.00
	CHANNELS 6 Xposition Yposition Zposition Zrotation Xrotation Yrotation
	JOINT Spine
	{
		OFFSET	 0.00	0.01	 0.00
		CHANNELS 3 Zrotation Xrotation Yrotation
		JOINT Spine1
		{
			OFFSET	 0.00	 2.45913012437421	 0.00
			CHANNELS 3 Zrotation Xrotation Yrotation
            JOINT Neck
            {
                OFFSET	 0.00	 2.48462964506057	 0.00
                CHANNELS 3 Zrotation Xrotation Yrotation
                JOINT Head
                {
                    OFFSET	 0.00	 0.927524780924562	 0.00
                    CHANNELS 3 Zrotation Xrotation Yrotation
                    End Site 
                    {
                        OFFSET	 0.00	 1.14999962169752	 0.00
                    }
                }
            }
			JOINT LeftShoulder
			{
				OFFSET	 0.00	 2.48462964506057	 0.00
				CHANNELS 3 Zrotation Xrotation Yrotation
				JOINT LeftUpArm
				{
					OFFSET	 0.00	 1.24881979654096	 0.00
					CHANNELS 3 Zrotation Xrotation Yrotation
					JOINT LeftForeArm
					{
						OFFSET	 0.00	2.59758046908119	 0.00
						CHANNELS 3 Zrotation Xrotation Yrotation
						JOINT LeftHand
						{
							OFFSET	 0.00	2.45542024364365	 0.00
							CHANNELS 3 Zrotation Xrotation Yrotation
							JOINT LeftHandThumb 
							{
								OFFSET	 0.00	0.00	 0.00
								CHANNELS 3 Zrotation Xrotation Yrotation
								End Site
								{
									OFFSET	 0.00	0.00	1.00000003353624
								}
							}
							JOINT L_Wrist_End 
							{
								OFFSET	 0.00	0.99999967115358	 0.00
								CHANNELS 3 Zrotation Xrotation Yrotation
								End Site 
								{
									OFFSET	 0.00	 0.00	 0.00
								}
							}
						}
					}
				}
			}
			JOINT RightShoulder
			{
				OFFSET	 0.00	 2.48462964506057	 0.00
				CHANNELS 3 Zrotation Xrotation Yrotation
				JOINT RightUpArm
				{
					OFFSET	 0.00	 1.24881979654096	 0.00
					CHANNELS 3 Zrotation Xrotation Yrotation
					JOINT RightForeArm
					{
						OFFSET	 0.00	2.59758046908119	 0.00
						CHANNELS 3 Zrotation Xrotation Yrotation
						JOINT RightHand
						{
							OFFSET	 0.00	2.45542024364365	 0.00
							CHANNELS 3 Zrotation Xrotation Yrotation
							JOINT RightHandThumb 
							{
								OFFSET	 0.00	0.00	 0.00
								CHANNELS 3 Zrotation Xrotation Yrotation
								End Site
								{
									OFFSET	 0.00	0.00	1.00000003353624
								}
							}
							JOINT R_Wrist_End 
							{
								OFFSET	 0.00	0.99999967115358	 0.00
								CHANNELS 3 Zrotation Xrotation Yrotation
								End Site 
								{
									OFFSET	 0.00	 0.00	 0.00
								}
							}
						}
					}
				}
			}
		}
	}
	JOINT LeftUpLeg
	{
		OFFSET	 1.2719394002717	 0.00	 0.00
		CHANNELS 3 Zrotation Xrotation Yrotation
		JOINT LeftLowLeg
		{
			OFFSET	 0.00	-4.3429100912261	 0.00
			CHANNELS 3 Zrotation Xrotation Yrotation
			JOINT LeftFoot
			{
				OFFSET	 0.00	-4.48767017425826	 0.00
				CHANNELS 3 Zrotation Xrotation Yrotation
				JOINT LeftToeBase
                {
                    OFFSET	 0.00	0.00	 1.51507020887566
                    CHANNELS 3 Zrotation Xrotation Yrotation
                    End Site 
                    {
                        OFFSET	 0.00	0.00	 0.75000010571191
                    }
                }
			}
		}
	}
	JOINT RightUpLeg
	{
		OFFSET	 -1.2719393604653	 0.00	 0.00
		CHANNELS 3 Zrotation Xrotation Yrotation
		JOINT RightLowLeg
		{
			OFFSET	 0.00	-4.3429100912261	 0.00
			CHANNELS 3 Zrotation Xrotation Yrotation
			JOINT RightFoot
			{
				OFFSET	 0.00	-4.48767017425826	 0.00
				CHANNELS 3 Zrotation Xrotation Yrotation
				JOINT RightToeBase
                {
                    OFFSET	 0.00	0.00	 1.51507020887566
                    CHANNELS 3 Zrotation Xrotation Yrotation
                    End Site 
                    {
                        OFFSET	 0.00	0.00	 0.749999965609858
                    }
                }   
			}
		}
	}
}
MOTION 
Frames:	20 
Frame Time: 0.02 
 -3.5099700927734374 -8.042839965820313 9.259439697265625 90.8691 86.2753 -87.7093 4.0324 -18.1415 0.354086 -9.05439 20.0936 3.53972 23.5094 52.1927 342.104 -43.7616 -83.1834 -405.205 -115.3713 -1.11192 367.15 -45.6832 5.66926 27.0484 0.0 17.9612 0.0 8.86052 -15.2015 -5.57353 0.0 0.0 0.0 0.0 0.0 0.0 122.2499 -5.22849 -363.416 46.6321 4.45541 -373.345 0.0 22.1518 0.0 4.7307 -9.28055 14.9947 0.0 0.0 0.0 0.0 0.0 0.0 -6.65904 -1.23651 -377.884 0.0 16.1188 0.0 -16.9333 -6.7511997 11.1901 0.0 -17.28714 0.0 3.54163 -0.90414 19.2283 0.0 21.043 0.0 26.4741 -13.3454 -6.74178 0.0 -17.6113 0.0 
  -3.512080078125 -8.034949951171875 9.259630126953125 88.6024 86.2533 -85.3394 4.03791 -18.0107 0.310393 -9.02564 20.1072 3.48172 23.716 51.7797 341.604 -45.4684 -83.2763 -406.825 -115.3868 -1.22216 367.301 -45.693 5.8651 26.8068 0.0 18.4019 0.0 9.04843 -15.2439 -6.14739 0.0 0.0 0.0 0.0 0.0 0.0 122.2823 -5.19089 -363.421 46.8264 4.44099 -371.8 0.0 21.7272 0.0 4.87823 -8.71976 15.0941 0.0 0.0 0.0 0.0 0.0 0.0 -6.66837 -1.15651 -378.008 0.0 16.1528 0.0 -16.9513 -6.7213 11.2093 0.0 -17.281559 0.0 3.54197 -0.80168 19.1169 0.0 21.0575 0.0 26.5642 -13.329599 -6.71581 0.0 -17.68394 0.0 
  -3.5087899780273437 -8.022080078125 9.2581201171875 88.8873 86.1327 -85.7624 4.14067 -17.8272 0.497975 -9.08777 19.8659 3.49982 23.6557 51.4713 341.42 -47.3405 -83.3091 -408.793 -115.4663 -1.37149 367.278 -45.616 5.90234 27.2888 0.0 18.7821 0.0 9.81724 -14.9548 -6.40091 0.0 0.0 0.0 0.0 0.0 0.0 122.2996 -5.24269 -363.394 47.1182 4.32874 -369.507 0.0 21.3328 0.0 5.33131 -8.62346 16.3809 0.0 0.0 0.0 0.0 0.0 0.0 -6.8342 -1.24965 -377.988 0.0 16.1799 0.0 -16.9703 -6.7047005 11.3461 0.0 -17.2569 0.0 3.35074 -0.821627 18.9129 0.0 20.8501 0.0 26.8696 -13.3892 -6.37373 0.0 -17.84868 0.0 
  -3.51093994140625 -8.014719848632813 9.260250244140625 91.9817 86.2268 -88.8054 4.2946 -18.0623 0.571936 -9.08486 19.8985 3.48626 23.8571 51.1174 340.959 -49.57 -83.4457 -410.901 -115.4999 -1.44519 367.155 -45.609 5.94171 27.1497 0.0 19.0052 0.0 10.2692 -14.897 -6.26552 0.0 0.0 0.0 0.0 0.0 0.0 122.3988 -5.33772 -363.27 47.3985 4.21766 -367.285 0.0 20.9377 0.0 5.61559 -8.56566 18.0466 0.0 0.0 0.0 0.0 0.0 0.0 -6.7337 -1.51079 -378.001 0.0 16.1777 0.0 -16.9779 -6.6616 11.2967 0.0 -17.24986 0.0 3.37329 -1.06251 18.5363 0.0 20.7469 0.0 26.4516 -13.0616 -6.34531 0.0 -18.00921 0.0 
  -3.5186801147460938 -8.017670288085938 9.261010131835938 86.5272 86.2037 -82.9882 3.90712 -17.9826 0.0850143 -8.62258 20.1453 3.50223 23.5379 50.8031 341.056 -51.3268 -83.4258 -412.527 -115.6613 -1.52279 367.063 -45.5534 5.92956 27.2681 0.0 19.3217 0.0 10.9659 -14.8182 -5.67147 0.0 0.0 0.0 0.0 0.0 0.0 122.2203 -5.3931 -363.098 47.7822 4.07637 -365.22 0.0 20.4918 0.0 5.89916 -8.67265 20.4983 0.0 0.0 0.0 0.0 0.0 0.0 -6.66731 -1.14895 -378.233 0.0 16.1601 0.0 -17.0292 -6.5900993 11.1683 0.0 -17.29857 0.0 3.8425 -0.889153 20.4518 0.0 21.6036 0.0 26.3757 -13.886801 -8.0585 0.0 -17.96744 0.0 
  -3.5217498779296874 -8.016890258789063 9.262249755859376 82.9629 86.1908 -79.4764 3.88616 -17.9068 0.057946 -8.44225 20.243 3.58678 23.3766 50.5064 341.008 -52.5461 -83.3943 -413.742 -115.7706 -1.53557 367.077 -45.4519 5.92518 27.2551 0.0 19.5609 0.0 11.2596 -14.7549 -5.59571 0.0 0.0 0.0 0.0 0.0 0.0 122.112 -5.46848 -363.049 48.1738 4.17191 -362.783 0.0 19.802 0.0 6.02001 -8.71384 21.6147 0.0 0.0 0.0 0.0 0.0 0.0 -6.60818 -0.876762 -378.128 0.0 16.0656 0.0 -17.0678 -6.5601006 11.1446 0.0 -17.29914 0.0 3.91495 -0.667881 20.6769 0.0 21.6481 0.0 26.6224 -13.9074 -8.07843 0.0 -17.67418 0.0 
  -3.5240301513671874 -8.011069946289062 9.262730102539063 82.3425 86.204 -78.8485 3.94269 -17.8876 0.10474 -8.40008 20.2092 3.59873 23.1957 50.3205 341.11 -53.75 -83.4525 -414.934 -115.7857 -1.5089 367.055 -45.4123 5.91185 27.3476 0.0 19.5725 0.0 11.6236 -14.5695 -5.21608 0.0 0.0 0.0 0.0 0.0 0.0 122.17 -5.55626 -363.007 48.2763 4.09771 -361.282 0.0 19.484 0.0 6.41382 -9.69806 24.3638 0.0 0.0 0.0 0.0 0.0 0.0 -6.57785 -0.886372 -378.09 0.0 16.0791 0.0 -17.0959 -6.5438995 11.1161 0.0 -17.29168 0.0 3.9069 -0.627165 20.4599 0.0 21.5007 0.0 26.5301 -13.7901 -8.0427 0.0 -17.7027 0.0 
  -3.5271200561523437 -8.003690185546875 9.261790161132813 82.3237 86.1849 -78.7528 3.93729 -17.8452 0.0873692 -8.37753 20.1058 3.5567 22.9628 50.1202 341.294 -54.5287 -83.5021 -415.728 -115.7718 -1.50261 367.06 -45.321 5.87866 27.6275 0.0 19.6587 0.0 11.8608 -14.5246 -4.57795 0.0 0.0 0.0 0.0 0.0 0.0 122.228195 -5.62577 -362.955 48.2452 4.0142 -360.594 0.0 19.3012 0.0 6.37394 -9.27553 24.444 0.0 0.0 0.0 0.0 0.0 0.0 -6.59556 -0.974389 -378.193 0.0 16.1716 0.0 -17.1399 -6.5578995 11.111 0.0 -17.29252 0.0 3.86636 -0.643998 20.1665 0.0 21.4353 0.0 26.4809 -13.7435 -7.89875 0.0 -17.98189 0.0 
  -3.5301800537109376 -7.998939819335938 9.261589965820313 82.4593 86.1742 -78.9341 3.95804 -17.8627 0.127517 -8.37041 20.0462 3.57511 22.8897 49.9441 341.331 -55.3053 -83.594 -416.384 -115.7389 -1.45391 367.054 -45.3209 5.86679 27.6953 0.0 19.4942 0.0 11.7759 -14.3544 -4.12531 0.0 0.0 0.0 0.0 0.0 0.0 122.2442 -5.6722 -362.951 48.1969 3.98186 -360.334 0.0 19.0373 0.0 6.1031 -8.90326 23.6087 0.0 0.0 0.0 0.0 0.0 0.0 -6.58494 -1.01164 -378.113 0.0 16.1678 0.0 -17.1226 -6.5270996 11.0949 0.0 -17.31469 0.0 3.84265 -0.685802 20.0073 0.0 21.384 0.0 26.476 -13.675501 -7.77749 0.0 -17.98512 0.0 
  -3.5338198852539064 -7.993670043945312 9.2614599609375 81.9207 86.1623 -78.3798 3.92047 -17.8782 0.0564753 -8.31481 20.0725 3.55356 22.5769 49.7272 341.641 -55.2709 -83.6243 -416.329 -115.7456 -1.41737 367.018 -45.2883 5.85384 27.9323 0.0 19.352 0.0 11.6789 -14.272 -3.77149 0.0 0.0 0.0 0.0 0.0 0.0 122.2976 -5.61811 -363.036 47.9746 3.80977 -360.716 0.0 19.2581 0.0 5.76887 -8.98358 23.5019 0.0 0.0 0.0 0.0 0.0 0.0 -6.57592 -1.03915 -378.122 0.0 16.2301 0.0 -17.1435 -6.5214996 11.0779 0.0 -17.3087 0.0 3.86011 -0.700705 19.9591 0.0 21.4412 0.0 26.4823 -13.6579 -7.72649 0.0 -17.96334 0.0 
  -3.537699890136719 -7.987689819335937 9.261090087890626 81.1506 86.1393 -77.547 3.8792 -17.8381 -0.0194161 -8.29283 20.0603 3.49827 22.3971 49.6257 341.878 -55.6277 -83.7205 -416.722 -115.7158 -1.34135 366.985 -45.2878 5.81344 28.1924 0.0 19.1851 0.0 11.539 -14.3027 -3.67972 0.0 0.0 0.0 0.0 0.0 0.0 122.3389 -5.5567 -363.089 47.6868 3.82931 -361.629 0.0 19.1102 0.0 5.52993 -8.87751 22.9575 0.0 0.0 0.0 0.0 0.0 0.0 -6.56472 -1.05554 -378.092 0.0 16.2779 0.0 -17.1903 -6.4911995 10.9853 0.0 -17.32775 0.0 3.86218 -0.69611 19.8193 0.0 21.4664 0.0 26.4869 -13.636 -7.66469 0.0 -17.976841 0.0 
  -3.541199951171875 -7.982670288085938 9.260609741210937 80.3955 86.13 -76.8901 3.89843 -17.8133 0.00260236 -8.29046 20.0398 3.50056 22.1185 49.5135 342.221 -55.0025 -83.7338 -416.202 -115.7182 -1.28004 367.042 -45.2384 5.82055 28.4703 0.0 19.1095 0.0 11.3074 -14.4846 -3.81294 0.0 0.0 0.0 0.0 0.0 0.0 122.3501 -5.43931 -363.214 47.4335 3.77286 -362.48 0.0 19.0783 0.0 5.35769 -8.80958 21.8115 0.0 0.0 0.0 0.0 0.0 0.0 -6.56183 -1.0539 -378.081 0.0 16.3372 0.0 -17.2472 -6.550699 11.0451 0.0 -17.28003 0.0 3.87775 -0.729151 19.811 0.0 21.5393 0.0 26.4874 -13.5884 -7.56732 0.0 -17.99184 0.0 
  -3.5448699951171876 -7.978900146484375 9.260789794921875 80.1169 86.151 -76.5752 3.91592 -17.8576 -0.0301812 -8.31155 20.025 3.43428 22.0991 49.4976 342.316 -54.6847 -83.7991 -415.874 -115.6883 -1.19707 367.09 -45.2392 5.79332 28.6548 0.0 18.9864 0.0 11.1387 -14.5481 -4.17656 0.0 0.0 0.0 0.0 0.0 0.0 122.3665 -5.32207 -363.319 47.1801 3.72587 -363.508 0.0 18.9628 0.0 5.36148 -8.5586 21.0352 0.0 0.0 0.0 0.0 0.0 0.0 -6.53503 -1.0906 -378.189 0.0 16.398 0.0 -17.2936 -6.5911007 11.0902 0.0 -17.26034 0.0 3.88161 -0.715643 19.5811 0.0 21.476 0.0 26.672 -13.4842 -7.33951 0.0 -17.85692 0.0 
  -3.548340148925781 -7.97541015625 9.2610302734375 79.6293 86.1596 -76.0927 3.90593 -17.8579 -0.0587948 -8.28843 20.0089 3.41269 22.0673 49.4767 342.387 -54.1664 -83.8038 -415.444 -115.696396 -1.13782 367.119 -45.2344 5.78578 28.7313 0.0 18.9131 0.0 10.9899 -14.5958 -4.38065 0.0 0.0 0.0 0.0 0.0 0.0 122.3415 -5.24092 -363.397 47.0108 3.76639 -364.393 0.0 18.77 0.0 5.40392 -8.5898 21.0096 0.0 0.0 0.0 0.0 0.0 0.0 -6.50627 -1.10517 -378.212 0.0 16.4429 0.0 -17.3313 -6.6019 11.0915 0.0 -17.261631 0.0 3.89771 -0.702653 19.5123 0.0 21.4472 0.0 26.8138 -13.424 -7.21403 0.0 -17.92748 0.0 
  -3.552489929199219 -7.970419921875 9.26197998046875 79.0962 86.1745 -75.6522 3.95298 -17.9068 -0.0244871 -8.29154 20.0297 3.42155 22.043 49.5057 342.462 -53.7265 -83.807 -415.067 -115.720505 -1.04835 367.16 -45.233 5.78761 28.8641 0.0 18.8561 0.0 10.8412 -14.6616 -4.10482 0.0 0.0 0.0 0.0 0.0 0.0 122.3359 -5.13495 -363.492 46.7627 3.82083 -365.481 0.0 18.5668 0.0 5.63207 -9.1544 20.6994 0.0 0.0 0.0 0.0 0.0 0.0 -6.46514 -1.10936 -378.132 0.0 16.4521 0.0 -17.3818 -6.6005993 11.1021 0.0 -17.27336 0.0 3.86759 -0.705347 19.2575 0.0 21.3602 0.0 26.8214 -13.2351 -6.93113 0.0 -18.27141 0.0 
  -3.556080017089844 -7.9643798828125 9.262319946289063 77.1339 86.1523 -73.8499 3.9639 -17.7775 0.0325201 -8.2494 19.9955 3.47765 21.9802 49.5517 342.578 -53.2515 -83.7908 -414.695 -115.732 -0.980456 367.198 -45.299 5.8358 28.8612 0.0 18.7631 0.0 10.8511 -14.682 -3.96851 0.0 0.0 0.0 0.0 0.0 0.0 122.303 -5.07485 -363.595 46.6066 3.89712 -366.202 0.0 18.3792 0.0 5.70987 -9.0268 20.0612 0.0 0.0 0.0 0.0 0.0 0.0 -6.43894 -1.02646 -377.991 0.0 16.4877 0.0 -17.4049 -6.6105995 11.1271 0.0 -17.28349 0.0 3.86001 -0.659988 19.1721 0.0 21.396 0.0 26.841 -13.090599 -6.70763 0.0 -17.74168 0.0 
  -3.559419860839844 -7.959630126953125 9.262780151367188 76.9012 86.18 -73.7492 3.99504 -17.7663 0.0751145 -8.20529 19.9262 3.4996 22.0562 49.6114 342.515 -53.1969 -83.7902 -414.644 -115.7349 -0.977144 367.215 -45.3658 5.85342 29.0073 0.0 18.7222 0.0 10.9837 -14.6339 -4.28759 0.0 0.0 0.0 0.0 0.0 0.0 122.3058 -5.00523 -363.612 46.4563 3.9141 -366.962 0.0 18.2501 0.0 5.61988 -9.25006 19.4279 0.0 0.0 0.0 0.0 0.0 0.0 -6.40728 -1.05424 -377.966 0.0 16.5223 0.0 -17.4123 -6.653799 11.2277 0.0 -17.25563 0.0 3.8709 -0.680478 19.1552 0.0 21.3402 0.0 26.8328 -13.0056 -6.5867 0.0 -17.71475 0.0 
  -3.562650146484375 -7.955260009765625 9.2631298828125 76.6398 86.1939 -73.5862 3.9871 -17.7454 0.0812726 -8.15994 19.8968 3.52309 21.9903 49.6924 342.635 -53.2514 -83.7982 -414.812 -115.7359 -0.987397 367.195 -45.4091 5.86725 28.9043 0.0 18.7591 0.0 10.7901 -14.5836 -4.2854 0.0 0.0 0.0 0.0 0.0 0.0 122.3062 -4.94718 -363.623 46.3803 3.92256 -367.356 0.0 18.1918 0.0 5.41381 -9.12193 18.7611 0.0 0.0 0.0 0.0 0.0 0.0 -6.37527 -1.07854 -377.864 0.0 16.5494 0.0 -17.4264 -6.6595993 11.2315 0.0 -17.24488 0.0 3.88886 -0.715147 19.1264 0.0 21.3505 0.0 26.8929 -12.9515 -6.46728 0.0 -17.67771 0.0 
  -3.5664401245117188 -7.950570068359375 9.263510131835938 76.1012 86.215 -73.0411 3.9425 -17.7588 0.00130412 -8.07425 19.9268 3.50975 21.9808 49.7695 342.669 -53.4584 -83.8038 -414.995 -115.7446 -0.980576 367.2 -45.4548 5.89955 28.8072 0.0 18.8197 0.0 10.7642 -14.6778 -4.25542 0.0 0.0 0.0 0.0 0.0 0.0 122.2949 -4.8887 -363.683 46.2853 3.99551 -367.893 0.0 18.1266 0.0 5.35975 -9.07685 18.2086 0.0 0.0 0.0 0.0 0.0 0.0 -6.34089 -1.11633 -377.918 0.0 16.6336 0.0 -17.4183 -6.6796 11.2735 0.0 -17.24711 0.0 3.92634 -0.718809 19.0506 0.0 21.345 0.0 26.9016 -12.9428005 -6.43144 0.0 -17.7008 0.0 
  -3.5715899658203125 -7.94468017578125 9.2631201171875 75.2668 86.1979 -72.3473 3.83455 -17.7357 -0.0775019 -7.90713 19.9641 3.58908 21.8547 49.8013 342.781 -53.4783 -83.7445 -415.008 -115.7537 -0.979074 367.139 -45.5641 5.89359 28.7522 0.0 18.8704 0.0 10.8799 -14.5561 -4.12644 0.0 0.0 0.0 0.0 0.0 0.0 122.2938 -4.77255 -363.733 46.1456 4.06933 -368.501 0.0 18.1234 0.0 5.38301 -9.3186 18.0041 0.0 0.0 0.0 0.0 0.0 0.0 -6.32393 -1.11975 -377.848 0.0 16.7035 0.0 -17.5085 -6.7285004 11.2913 0.0 -17.23553 0.0 3.96375 -0.783115 19.0971 0.0 21.5035 0.0 27.0733 -13.0424 -6.25419 0.0 -17.8685 0.0 
